<svg xmlns="http://www.w3.org/2000/svg" width="898" height="178" fill="none"><mask id="a" width="898" height="178" x="0" y="0" maskUnits="userSpaceOnUse" style="mask-type:luminance"><path fill="#fff" d="M897.81 0H0v177.4h897.81V0Z"/></mask><g fill="#000" mask="url(#a)"><path d="M215.79 94.2c0 28.2-20.6 51-46.6 51-15.8 0-27.8-7.2-34.8-19.6v17.6h-22.2V3.2h22.2V63c7-12.4 19-19.6 34.8-19.6 26 0 46.6 22.6 46.6 50.8Zm-21.8 0c0-16.4-13-29.6-29.6-29.6s-30 12.8-30 29.6 12.8 29.8 30 29.8 29.6-13.2 29.6-29.8Zm122.14-48.8v97.8h-22.4v-15.4c-6.2 11-16.4 17.4-29.4 17.4-25.2 0-40.6-16.8-40.6-44.2V45.4h22.2v53c0 15.4 9.4 25.4 23.8 25.4s24-10 24-25.4v-53h22.4Zm39.54-31.2c0 8-6.6 14.4-14.4 14.4-7.8 0-14.2-6.4-14.2-14.4S333.47 0 341.27 0c7.8 0 14.4 6.6 14.4 14.2Zm-3.4 31.2v97.8h-22.2V45.4h22.2Zm36.12 97.8h-22.2V3.2h22.2v140Zm112.36-140v140h-22.4V126c-7 12.2-19 19.2-34.6 19.2-26 0-46.8-22.8-46.8-51s20.8-50.8 46.8-50.8c15.6 0 27.6 7 34.6 19.2V3.2h22.4Zm-22.4 91c0-16.8-12.8-29.6-29.8-29.6s-29.6 13.2-29.6 29.6c0 16.4 13 29.8 29.6 29.8s29.8-12.8 29.8-29.8Zm139.961.2c0 28.2-20.6 50.8-46.6 50.8-15.8 0-27.8-7.2-34.8-19.6v51.8h-22.2v-132h22.2V63c7-12.4 19-19.6 34.8-19.6 26 0 46.6 22.8 46.6 51Zm-21.8 0c0-16.6-13-29.8-29.6-29.8s-30 12.8-30 29.8 12.8 29.6 30 29.6 29.6-13.2 29.6-29.6Zm128.92-49v97.8h-22.4V126c-7 12.2-19 19.2-34.6 19.2-26 0-46.8-22.8-46.8-51s20.8-50.8 46.8-50.8c15.6 0 27.6 7 34.6 19.2V45.4h22.4Zm-22.4 48.8c0-16.8-12.8-29.6-29.8-29.6s-29.6 13.2-29.6 29.6c0 16.4 13 29.8 29.6 29.8s29.8-12.8 29.8-29.8Zm30.658 17.6h21.4c.8 8.6 9.2 14.2 20.2 14.2s17.2-4.6 17.2-11.4c0-21-56.6-4-56.6-41.2 0-17 14.2-30 37-30 20.2 0 37.8 10.8 40 30.6h-22.4c-1-6.6-7.8-12-18-12-8.8 0-15 3.8-15 10 0 19.8 56.8 1.6 56.8 42.4 0 17.6-16.2 30.8-37.8 30.8-24 0-40.8-12.4-42.8-33.4Zm83.522 0h21.4c.8 8.6 9.2 14.2 20.2 14.2s17.2-4.6 17.2-11.4c0-21-56.6-4-56.6-41.2 0-17 14.2-30 37-30 20.2 0 37.8 10.8 40 30.6h-22.4c-1-6.6-7.8-12-18-12-8.8 0-15 3.8-15 10 0 19.8 56.8 1.6 56.8 42.4 0 17.6-16.2 30.8-37.8 30.8-24 0-40.8-12.4-42.8-33.4ZM89.99 98.93 36 145.4 0 122.01V84.6l36 23.38 53.99-46.47v37.42ZM0 46.47 54 0l35.99 23.39V60.8L54 37.41 0 83.89V46.47Z"/></g></svg>